<?xml version="1.0" standalone="no"?><svg xmlns="http://www.w3.org/2000/svg" viewBox="0 0 1440 320"><path fill="#1d3557" fill-opacity="1" d="M0,128L17.1,138.7C34.3,149,69,171,103,165.3C137.1,160,171,128,206,112C240,96,274,96,309,101.3C342.9,107,377,117,411,117.3C445.7,117,480,107,514,112C548.6,117,583,139,617,128C651.4,117,686,75,720,64C754.3,53,789,75,823,90.7C857.1,107,891,117,926,128C960,139,994,149,1029,181.3C1062.9,213,1097,267,1131,266.7C1165.7,267,1200,213,1234,181.3C1268.6,149,1303,139,1337,154.7C1371.4,171,1406,213,1423,234.7L1440,256L1440,0L1422.9,0C1405.7,0,1371,0,1337,0C1302.9,0,1269,0,1234,0C1200,0,1166,0,1131,0C1097.1,0,1063,0,1029,0C994.3,0,960,0,926,0C891.4,0,857,0,823,0C788.6,0,754,0,720,0C685.7,0,651,0,617,0C582.9,0,549,0,514,0C480,0,446,0,411,0C377.1,0,343,0,309,0C274.3,0,240,0,206,0C171.4,0,137,0,103,0C68.6,0,34,0,17,0L0,0Z"></path></svg>